{
  "accessors": [
    {
      "bufferView": 1,
      "componentType": 5126,
      "count": 28,
      "max": [
        1.6044199466705322,
        1.3507661819458008,
        1.8145809173583984
      ],
      "min": [
        -2.3797135353088379,
        -0.35224819183349609,
        -1.984874963760376
      ],
      "type": "VEC3"
    },
    {
      "bufferView": 1,
      "byteOffset": 336,
      "componentType": 5126,
      "count": 28,
      "max": [
        0.87772709131240845,
        0.98940205574035645,
        0.45801472663879395
      ],
      "min": [
        -0.47051617503166199,
        0.46871465444564819,
        -0.28464624285697937
      ],
      "type": "VEC3"
    },
    {
      "bufferView": 2,
      "componentType": 5126,
      "count": 28,
      "max": [
        0.83519524335861206,
        0.67625004053115845,
        0.91468328237533569,
        1
      ],
      "min": [
        -0.89695525169372559,
        -0.23124246299266815,
        -0.83498162031173706,
        1
      ],
      "type": "VEC4"
    },
    {
      "bufferView": 0,
      "componentType": 5125,
      "count": 36,
      "max": [
        27
      ],
      "min": [
        0
      ],
      "type": "SCALAR"
    }
  ],
  "asset": {
    "extras": {
      "author": "PRISM (https://sketchfab.com/jessevannormanstudios)",
      "license": "CC-BY-4.0 (http://creativecommons.org/licenses/by/4.0/)",
      "source": "https://sketchfab.com/models/7ce28517212d4090801a14495a172f19",
      "title": "Grass - The Dragon Cave Assets"
    },
    "generator": "Sketchfab-3.18.7",
    "version": "2.0"
  },
  "bufferViews": [
    {
      "buffer": 0,
      "byteLength": 144,
      "byteOffset": 0,
      "name": "floatBufferViews",
      "target": 34963
    },
    {
      "buffer": 0,
      "byteLength": 672,
      "byteOffset": 144,
      "byteStride": 12,
      "name": "floatBufferViews",
      "target": 34962
    },
    {
      "buffer": 0,
      "byteLength": 448,
      "byteOffset": 816,
      "byteStride": 16,
      "name": "floatBufferViews",
      "target": 34962
    }
  ],
  "buffers": [
    {
      "byteLength": 1264,
      "uri": "lowGrass_01.bin"
    }
  ],
  "materials": [
    {
      "doubleSided": true,
      "emissiveFactor": [
        0,
        0,
        0
      ],
      "name": "Grass_PatchGreen",
      "pbrMetallicRoughness": {
        "baseColorFactor": [
          0.19120400000000001,
          0.34192,
          0.15896099999999999,
          1
        ],
        "metallicFactor": 0,
        "roughnessFactor": 0.59999999999999998
      }
    }
  ],
  "meshes": [
    {
      "name": "Grass_Patch:pPlane6_Grass_Patch:Green_0",
      "primitives": [
        {
          "attributes": {
            "NORMAL": 1,
            "POSITION": 0,
            "TANGENT": 2
          },
          "indices": 3,
          "material": 0,
          "mode": 4
        }
      ]
    }
  ],
  "nodes": [
    {
      "children": [
        1
      ],
      "name": "RootNode (gltf orientation matrix)",
      "rotation": [
        -0.70710678118654746,
        -0,
        -0,
        0.70710678118654757
      ]
    },
    {
      "children": [
        2
      ],
      "name": "RootNode (model correction matrix)"
    },
    {
      "children": [
        3
      ],
      "matrix": [
        1,
        0,
        0,
        0,
        0,
        0,
        1,
        0,
        0,
        -1,
        0,
        0,
        0,
        0,
        0,
        1
      ],
      "name": "fc9c000a1c8b49b5a80ab8bd564b276a.fbx"
    },
    {
      "children": [
        4
      ],
      "name": "RootNode"
    },
    {
      "children": [
        5
      ],
      "matrix": [
        1.5547665357589722,
        0,
        0,
        0,
        0,
        1.5547665357589722,
        0,
        0,
        0,
        0,
        1.5547665357589722,
        0,
        0,
        0,
        18.994651794433594,
        1
      ],
      "name": "Grass_Patch:pPlane6"
    },
    {
      "mesh": 0,
      "name": "Grass_Patch:pPlane6_Grass_Patch:Green_0"
    }
  ],
  "scene": 0,
  "scenes": [
    {
      "name": "OSG_Scene",
      "nodes": [
        0
      ]
    }
  ]
}

