{
  "accessors": [
    {
      "bufferView": 1,
      "componentType": 5126,
      "count": 96,
      "max": [
        0.86602538824081421,
        0.99999994039535522,
        0.75464743375778198
      ],
      "min": [
        -1.1913473606109619,
        -0.99999994039535522,
        -1.1209632158279419
      ],
      "type": "VEC3"
    },
    {
      "bufferView": 1,
      "byteOffset": 1152,
      "componentType": 5126,
      "count": 96,
      "max": [
        0.9893491268157959,
        0.85973215103149414,
        0.64815300703048706
      ],
      "min": [
        -0.95193082094192505,
        -0.84861457347869873,
        -0.92537868022918701
      ],
      "type": "VEC3"
    },
    {
      "bufferView": 0,
      "componentType": 5125,
      "count": 144,
      "max": [
        95
      ],
      "min": [
        0
      ],
      "type": "SCALAR"
    },
    {
      "bufferView": 1,
      "byteOffset": 2304,
      "componentType": 5126,
      "count": 96,
      "max": [
        0.54245877265930176,
        0.66081494092941284,
        0.77471524477005005
      ],
      "min": [
        -1.108680248260498,
        -0.47246909141540527,
        -1.0734319686889648
      ],
      "type": "VEC3"
    },
    {
      "bufferView": 1,
      "byteOffset": 3456,
      "componentType": 5126,
      "count": 96,
      "max": [
        0.98176884651184082,
        0.95728820562362671,
        0.74983572959899902
      ],
      "min": [
        -0.80329406261444092,
        -0.99185240268707275,
        -0.83558547496795654
      ],
      "type": "VEC3"
    },
    {
      "bufferView": 0,
      "byteOffset": 576,
      "componentType": 5125,
      "count": 144,
      "max": [
        95
      ],
      "min": [
        0
      ],
      "type": "SCALAR"
    },
    {
      "bufferView": 1,
      "byteOffset": 4608,
      "componentType": 5126,
      "count": 96,
      "max": [
        0.86602538824081421,
        0.99999994039535522,
        0.75464743375778198
      ],
      "min": [
        -1.1913473606109619,
        -0.99999994039535522,
        -1.1209632158279419
      ],
      "type": "VEC3"
    },
    {
      "bufferView": 1,
      "byteOffset": 5760,
      "componentType": 5126,
      "count": 96,
      "max": [
        0.9893491268157959,
        0.85973215103149414,
        0.64815300703048706
      ],
      "min": [
        -0.95193082094192505,
        -0.84861457347869873,
        -0.92537868022918701
      ],
      "type": "VEC3"
    },
    {
      "bufferView": 0,
      "byteOffset": 1152,
      "componentType": 5125,
      "count": 144,
      "max": [
        95
      ],
      "min": [
        0
      ],
      "type": "SCALAR"
    },
    {
      "bufferView": 1,
      "byteOffset": 6912,
      "componentType": 5126,
      "count": 96,
      "max": [
        0.86602538824081421,
        0.99999994039535522,
        0.77137959003448486
      ],
      "min": [
        -1.3153630495071411,
        -0.99999994039535522,
        -1.1209632158279419
      ],
      "type": "VEC3"
    },
    {
      "bufferView": 1,
      "byteOffset": 8064,
      "componentType": 5126,
      "count": 96,
      "max": [
        0.99614924192428589,
        0.85212749242782593,
        0.83122670650482178
      ],
      "min": [
        -0.998454749584198,
        -0.87389618158340454,
        -0.91125655174255371
      ],
      "type": "VEC3"
    },
    {
      "bufferView": 0,
      "byteOffset": 1728,
      "componentType": 5125,
      "count": 144,
      "max": [
        95
      ],
      "min": [
        0
      ],
      "type": "SCALAR"
    },
    {
      "bufferView": 1,
      "byteOffset": 9216,
      "componentType": 5126,
      "count": 96,
      "max": [
        0.64872467517852783,
        0.74908268451690674,
        0.76736867427825928
      ],
      "min": [
        -1.1702121496200562,
        -0.74908268451690674,
        -1.1209632158279419
      ],
      "type": "VEC3"
    },
    {
      "bufferView": 1,
      "byteOffset": 10368,
      "componentType": 5126,
      "count": 96,
      "max": [
        0.99051904678344727,
        0.86508065462112427,
        0.55538249015808105
      ],
      "min": [
        -0.89844858646392822,
        -0.86593258380889893,
        -0.83858925104141235
      ],
      "type": "VEC3"
    },
    {
      "bufferView": 0,
      "byteOffset": 2304,
      "componentType": 5125,
      "count": 144,
      "max": [
        95
      ],
      "min": [
        0
      ],
      "type": "SCALAR"
    }
  ],
  "asset": {
    "extras": {
      "author": "Stilk (https://sketchfab.com/Stilk)",
      "license": "CC-BY-4.0 (http://creativecommons.org/licenses/by/4.0/)",
      "source": "https://sketchfab.com/models/b048592a2390469eb5fbfa5ca56c6151",
      "title": "Herbe"
    },
    "generator": "Sketchfab-3.54.8-rc1",
    "version": "2.0"
  },
  "bufferViews": [
    {
      "buffer": 0,
      "byteLength": 2880,
      "byteOffset": 0,
      "name": "floatBufferViews",
      "target": 34963
    },
    {
      "buffer": 0,
      "byteLength": 11520,
      "byteOffset": 2880,
      "byteStride": 12,
      "name": "floatBufferViews",
      "target": 34962
    }
  ],
  "buffers": [
    {
      "byteLength": 14400,
      "uri": "highGrass_01.bin"
    }
  ],
  "materials": [
    {
      "doubleSided": true,
      "emissiveFactor": [
        0,
        0,
        0
      ],
      "name": "Material.001",
      "pbrMetallicRoughness": {
        "baseColorFactor": [
          0.35027000000000003,
          1,
          0.38847700000000002,
          1
        ],
        "metallicFactor": 0,
        "roughnessFactor": 0.82394172570000002
      }
    }
  ],
  "meshes": [
    {
      "name": "Cone.004_Material.001_0",
      "primitives": [
        {
          "attributes": {
            "NORMAL": 1,
            "POSITION": 0
          },
          "indices": 2,
          "material": 0,
          "mode": 4
        }
      ]
    },
    {
      "name": "Cone.003_Material.001_0",
      "primitives": [
        {
          "attributes": {
            "NORMAL": 4,
            "POSITION": 3
          },
          "indices": 5,
          "material": 0,
          "mode": 4
        }
      ]
    },
    {
      "name": "Cone.002_Material.001_0",
      "primitives": [
        {
          "attributes": {
            "NORMAL": 7,
            "POSITION": 6
          },
          "indices": 8,
          "material": 0,
          "mode": 4
        }
      ]
    },
    {
      "name": "Cone.001_Material.001_0",
      "primitives": [
        {
          "attributes": {
            "NORMAL": 10,
            "POSITION": 9
          },
          "indices": 11,
          "material": 0,
          "mode": 4
        }
      ]
    },
    {
      "name": "Cone_Material.001_0",
      "primitives": [
        {
          "attributes": {
            "NORMAL": 13,
            "POSITION": 12
          },
          "indices": 14,
          "material": 0,
          "mode": 4
        }
      ]
    }
  ],
  "nodes": [
    {
      "children": [
        1
      ],
      "name": "RootNode (gltf orientation matrix)",
      "rotation": [
        -0.70710678118654746,
        -0,
        -0,
        0.70710678118654757
      ]
    },
    {
      "children": [
        2
      ],
      "name": "RootNode (model correction matrix)"
    },
    {
      "children": [
        3
      ],
      "matrix": [
        1,
        0,
        0,
        0,
        0,
        0,
        1,
        0,
        0,
        -1,
        0,
        0,
        0,
        0,
        0,
        1
      ],
      "name": "dc96331be77e408c9025c54f68980ff6.fbx"
    },
    {
      "children": [
        4,
        6,
        8,
        10,
        12,
        14,
        17
      ],
      "name": "RootNode"
    },
    {
      "children": [
        5
      ],
      "matrix": [
        27.859957818886702,
        -1.8934413619170665,
        4.5200056834216387,
        0,
        4.6500222512971208,
        1.9782185755891371,
        -27.832660336138325,
        0,
        4.937778605409318,
        89.872102411050506,
        7.2126573737282405,
        0,
        -218.81327819824219,
        98.324859619140625,
        45.202491760253906,
        1
      ],
      "name": "Cone.004"
    },
    {
      "mesh": 0,
      "name": "Cone.004_Material.001_0"
    },
    {
      "children": [
        7
      ],
      "matrix": [
        77.247152018374578,
        -7.5392269406964303,
        -63.055828931089351,
        0,
        -62.775971240817505,
        -24.066883180933374,
        -74.026769271172171,
        0,
        -30.626365315746693,
        308.88821631065053,
        -74.451132258036907,
        0,
        -156.33921813964844,
        317.25479125976562,
        177.76443481445312,
        1
      ],
      "name": "Cone.003"
    },
    {
      "mesh": 1,
      "name": "Cone.003_Material.001_0"
    },
    {
      "children": [
        9
      ],
      "matrix": [
        52.968835885000949,
        -3.5999115795239045,
        8.5936755827435647,
        0,
        8.8408694423255412,
        3.761094293750566,
        -52.916933073976544,
        0,
        9.3879657064462005,
        170.86959194097423,
        13.713085475871397,
        0,
        33.442401885986328,
        194.00411987304688,
        187.07394409179688,
        1
      ],
      "name": "Cone.002"
    },
    {
      "mesh": 2,
      "name": "Cone.002_Material.001_0"
    },
    {
      "children": [
        11
      ],
      "matrix": [
        9.9127319300969212,
        0.10165713013843049,
        59.834908425229337,
        0,
        59.834750015984589,
        0.15928436708559468,
        -9.9129763045539203,
        0,
        -0.55464563579113124,
        193.59966159075319,
        -0.23703107203741861,
        0,
        99.97064208984375,
        217.37446594238281,
        93.982147216796875,
        1
      ],
      "name": "Cone.001"
    },
    {
      "mesh": 3,
      "name": "Cone.001_Material.001_0"
    },
    {
      "children": [
        13
      ],
      "matrix": [
        100,
        0,
        0,
        0,
        -0,
        -1.6292067939183141e-05,
        -99.999999999998678,
        0,
        0,
        319.20663452148017,
        -5.2005361762620261e-05,
        0,
        -47.832004547119141,
        357.81890869140625,
        0,
        1
      ],
      "name": "Cone"
    },
    {
      "mesh": 4,
      "name": "Cone_Material.001_0"
    },
    {
      "children": [
        15
      ],
      "matrix": [
        -29.08647719990347,
        -5.5189064575668629,
        -95.517119101714371,
        0,
        56.639309131094492,
        79.467234285632031,
        -21.839123978419661,
        0,
        77.110087759933748,
        -60.452463565620441,
        -19.988346967737169,
        0,
        407.62454223632812,
        590.38623046875,
        -100.54539489746094,
        1
      ],
      "name": "Lamp"
    },
    {
      "children": [
        16
      ],
      "matrix": [
        1,
        0,
        0,
        0,
        0,
        2.2204460492503131e-16,
        1,
        0,
        0,
        -1,
        2.2204460492503131e-16,
        0,
        0,
        0,
        0,
        1
      ],
      "name": ""
    },
    {
      "name": ""
    },
    {
      "children": [
        18
      ],
      "matrix": [
        -65.155832803290963,
        -44.527135765708579,
        -61.417030473735487,
        0,
        -32.40134137821245,
        89.539574512336159,
        -30.542088974418615,
        0,
        68.592054721299746,
        -1.0718647115348782e-05,
        -72.767633623962695,
        0,
        748.1131591796875,
        534.36651611328125,
        650.76397705078125,
        1
      ],
      "name": "Camera"
    },
    {
      "name": ""
    }
  ],
  "scene": 0,
  "scenes": [
    {
      "name": "OSG_Scene",
      "nodes": [
        0
      ]
    }
  ]
}

